<?xml version="1.0" encoding="UTF-8" standalone="no"?>

<svg
    xmlns="http://www.w3.org/2000/svg"
    viewBox="0 0 643.22 144"
    xmlns:xlink="http://www.w3.org/1999/xlink"
    style="isolation:isolate"
    width="512"
    height="256"
>
    <path
        d="M558.37,558.8a61.66,61.66,0,0,0,31.2,8.8c17.8,0,28.2-9.4,28.2-23,0-12.6-7.2-19.8-25.4-26.8-22-7.8-35.6-19.2-35.6-38.2,0-21,17.4-36.6,43.6-36.6,13.8,0,23.8,3.2,29.8,6.6l-4.8,14.2a53.69,53.69,0,0,0-25.6-6.4c-18.4,0-25.4,11-25.4,20.2,0,12.6,8.2,18.8,26.8,26,22.8,8.8,34.4,19.8,34.4,39.6,0,20.8-15.4,38.8-47.2,38.8-13,0-27.2-3.8-34.4-8.6Z" transform="translate(-551.04 -440.5)"/><path class="cls-1" d="M729.17,516.8h-52.4v48.6h58.4V580h-75.8V445.2h72.8v14.6h-55.4v42.6h52.4Z" transform="translate(-551.04 -440.5)"/><path class="cls-1" d="M757.77,580V445.2h19L820,513.4a381.58,381.58,0,0,1,24.2,43.8l.4-.2c-1.6-18-2-34.4-2-55.4V445.2H859V580h-17.6l-42.8-68.4c-9.4-15-18.4-30.4-25.2-45l-.6.2c1,17,1.4,33.2,1.4,55.6V580Z" transform="translate(-551.04 -440.5)"/><path class="cls-1" d="M992,574a125.58,125.58,0,0,1-41.4,7.4c-20.39,0-37.19-5.2-50.39-17.8-11.6-11.2-18.8-29.2-18.8-50.2.2-40.2,27.8-69.6,73-69.6,15.6,0,27.8,3.4,33.6,6.2l-4.2,14.2c-7.2-3.2-16.2-5.8-29.8-5.8-32.79,0-54.19,20.4-54.19,54.2,0,34.2,20.6,54.4,52,54.4,11.4,0,19.2-1.6,23.2-3.6V523.2h-27.4v-14H992Z" transform="translate(-551.04 -440.5)"/><path class="cls-1" d="M1088.36,516.8H1036v48.6h58.4V580h-75.8V445.2h72.8v14.6H1036v42.6h52.4Z" transform="translate(-551.04 -440.5)"/><path class="cls-1" d="M1114.56,558.8a61.66,61.66,0,0,0,31.2,8.8c17.8,0,28.2-9.4,28.2-23,0-12.6-7.2-19.8-25.4-26.8-22-7.8-35.6-19.2-35.6-38.2,0-21,17.4-36.6,43.6-36.6,13.8,0,23.8,3.2,29.8,6.6l-4.8,14.2a53.69,53.69,0,0,0-25.6-6.4c-18.4,0-25.4,11-25.4,20.2,0,12.6,8.2,18.8,26.8,26,22.8,8.8,34.4,19.8,34.4,39.6,0,20.8-15.4,38.8-47.2,38.8-13,0-27.2-3.8-34.4-8.6Z"
        transform="translate(-551.04 -440.5)"
        fill-rule="evenodd"
        fill="none"
        vector-effect="non-scaling-stroke"
        stroke-width="1"
        stroke="rgb(0,0,0)"
        stroke-linejoin="miter"
        stroke-linecap="square"
        stroke-miterlimit="3"
    />
</svg>