<svg xmlns="http://www.w3.org/2000/svg" width="1920" height="1080"><path d="M932,582L942,654L1013,639Z" fill="#e8f0f4" stroke="#e8f0f4" stroke-width="1.51"/><path d="M1013,639L1025,572L932,582Z" fill="#eaf0f5" stroke="#eaf0f5" stroke-width="1.51"/><path d="M1164,650L1131,525L1025,572Z" fill="#e1ecf3" stroke="#e1ecf3" stroke-width="1.51"/><path d="M942,654L1059,728L1013,639Z" fill="#d8e8f1" stroke="#d8e8f1" stroke-width="1.51"/><path d="M932,582L819,614L942,654Z" fill="#ebeced" stroke="#ebeced" stroke-width="1.51"/><path d="M942,654L921,807L1059,728Z" fill="#cce1ec" stroke="#cce1ec" stroke-width="1.51"/><path d="M1020,376L866,425L932,582Z" fill="#faebe3" stroke="#faebe3" stroke-width="1.51"/><path d="M932,582L765,498L819,614Z" fill="#f5ece7" stroke="#f5ece7" stroke-width="1.51"/><path d="M1164,650L1025,572L1013,639Z" fill="#dfebf3" stroke="#dfebf3" stroke-width="1.51"/><path d="M1059,728L1164,650L1013,639Z" fill="#d2e5f0" stroke="#d2e5f0" stroke-width="1.51"/><path d="M799,803L921,807L942,654Z" fill="#c9d8e2" stroke="#c9d8e2" stroke-width="1.51"/><path d="M1020,376L932,582L1025,572Z" fill="#f5f2f0" stroke="#f5f2f0" stroke-width="1.51"/><path d="M866,425L765,498L932,582Z" fill="#fbeae1" stroke="#fbeae1" stroke-width="1.51"/><path d="M1131,525L1142,450L1025,572Z" fill="#ebeeef" stroke="#ebeeef" stroke-width="1.51"/><path d="M1243,455L1142,450L1131,525Z" fill="#e4e5e5" stroke="#e4e5e5" stroke-width="1.51"/><path d="M1142,450L1020,376L1025,572Z" fill="#f0e9e4" stroke="#f0e9e4" stroke-width="1.51"/><path d="M819,614L799,803L942,654Z" fill="#dbe0e3" stroke="#dbe0e3" stroke-width="1.51"/><path d="M659,694L799,803L819,614Z" fill="#dad6d6" stroke="#dad6d6" stroke-width="1.51"/><path d="M921,807L1003,868L1059,728Z" fill="#b5d2e5" stroke="#b5d2e5" stroke-width="1.51"/><path d="M1059,728L1175,785L1164,650Z" fill="#bedbeb" stroke="#bedbeb" stroke-width="1.51"/><path d="M858,923L1003,868L921,807Z" fill="#a6c1d9" stroke="#a6c1d9" stroke-width="1.51"/><path d="M1138,879L1175,785L1059,728Z" fill="#a9cde3" stroke="#a9cde3" stroke-width="1.51"/><path d="M1164,650L1272,534L1131,525Z" fill="#d9e8f1" stroke="#d9e8f1" stroke-width="1.51"/><path d="M1175,785L1224,702L1164,650Z" fill="#b9d8e9" stroke="#b9d8e9" stroke-width="1.51"/><path d="M765,498L703,560L819,614Z" fill="#f8e6dd" stroke="#f8e6dd" stroke-width="1.51"/><path d="M1142,450L1066,350L1020,376Z" fill="#f0dad0" stroke="#f0dad0" stroke-width="1.51"/><path d="M1020,376L854,322L866,425Z" fill="#fbd7c6" stroke="#fbd7c6" stroke-width="1.51"/><path d="M799,803L858,923L921,807Z" fill="#afc1d3" stroke="#afc1d3" stroke-width="1.51"/><path d="M720,873L781,842L658,801Z" fill="#b5b5c0" stroke="#b5b5c0" stroke-width="1.51"/><path d="M1175,785L1225,767L1224,702Z" fill="#aad1e5" stroke="#aad1e5" stroke-width="1.51"/><path d="M1213,920L1225,767L1175,785Z" fill="#94c0dc" stroke="#94c0dc" stroke-width="1.51"/><path d="M1224,702L1272,534L1164,650Z" fill="#cae1ee" stroke="#cae1ee" stroke-width="1.51"/><path d="M1142,450L1150,308L1066,350Z" fill="#ecd2c8" stroke="#ecd2c8" stroke-width="1.51"/><path d="M1363,666L1272,534L1224,702Z" fill="#bedbea" stroke="#bedbea" stroke-width="1.51"/><path d="M992,243L854,322L1020,376Z" fill="#f8cab8" stroke="#f8cab8" stroke-width="1.51"/><path d="M866,425L755,377L765,498Z" fill="#fdddcb" stroke="#fdddcb" stroke-width="1.51"/><path d="M765,498L595,469L703,560Z" fill="#fbd9c9" stroke="#fbd9c9" stroke-width="1.51"/><path d="M1003,868L1138,879L1059,728Z" fill="#a6c8e0" stroke="#a6c8e0" stroke-width="1.51"/><path d="M1272,534L1243,455L1131,525Z" fill="#dce4e9" stroke="#dce4e9" stroke-width="1.51"/><path d="M822,320L755,377L866,425Z" fill="#fbd0b9" stroke="#fbd0b9" stroke-width="1.51"/><path d="M703,560L659,694L819,614Z" fill="#eddcd5" stroke="#eddcd5" stroke-width="1.51"/><path d="M581,566L659,694L703,560Z" fill="#f0d3c6" stroke="#f0d3c6" stroke-width="1.51"/><path d="M854,322L822,320L866,425Z" fill="#fbceb8" stroke="#fbceb8" stroke-width="1.51"/><path d="M781,842L858,923L799,803Z" fill="#adbbcc" stroke="#adbbcc" stroke-width="1.51"/><path d="M1003,868L1049,996L1138,879Z" fill="#94b4d6" stroke="#94b4d6" stroke-width="1.51"/><path d="M1066,350L992,243L1020,376Z" fill="#f4caba" stroke="#f4caba" stroke-width="1.51"/><path d="M854,322L820,206L822,320Z" fill="#f5b7a1" stroke="#f5b7a1" stroke-width="1.51"/><path d="M1255,360L1150,308L1142,450Z" fill="#e4cfc7" stroke="#e4cfc7" stroke-width="1.51"/><path d="M781,842L813,961L858,923Z" fill="#a6afc7" stroke="#a6afc7" stroke-width="1.51"/><path d="M658,801L781,842L799,803Z" fill="#bbbfc8" stroke="#bbbfc8" stroke-width="1.51"/><path d="M659,694L658,801L799,803Z" fill="#cac5c6" stroke="#cac5c6" stroke-width="1.51"/><path d="M1150,308L992,243L1066,350Z" fill="#eec2b3" stroke="#eec2b3" stroke-width="1.51"/><path d="M1243,455L1255,360L1142,450Z" fill="#e0d9d5" stroke="#e0d9d5" stroke-width="1.51"/><path d="M1411,444L1255,360L1243,455Z" fill="#d3d1d1" stroke="#d3d1d1" stroke-width="1.51"/><path d="M720,873L813,961L781,842Z" fill="#a9b0c3" stroke="#a9b0c3" stroke-width="1.51"/><path d="M911,1001L1049,996L1003,868Z" fill="#98aed3" stroke="#98aed3" stroke-width="1.51"/><path d="M911,1001L1003,868L858,923Z" fill="#9fb2d2" stroke="#9fb2d2" stroke-width="1.51"/><path d="M1138,879L1213,920L1175,785Z" fill="#8dbad9" stroke="#8dbad9" stroke-width="1.51"/><path d="M1371,754L1363,666L1224,702Z" fill="#a5cee3" stroke="#a5cee3" stroke-width="1.51"/><path d="M1084,1011L1213,920L1138,879Z" fill="#89abd2" stroke="#89abd2" stroke-width="1.51"/><path d="M813,961L911,1001L858,923Z" fill="#9ea6c7" stroke="#9ea6c7" stroke-width="1.51"/><path d="M595,469L581,566L703,560Z" fill="#fad4c3" stroke="#fad4c3" stroke-width="1.51"/><path d="M659,694L589,764L658,801Z" fill="#cebfbb" stroke="#cebfbb" stroke-width="1.51"/><path d="M1371,754L1224,702L1225,767Z" fill="#a3cde3" stroke="#a3cde3" stroke-width="1.51"/><path d="M1272,534L1381,493L1243,455Z" fill="#cfdbe2" stroke="#cfdbe2" stroke-width="1.51"/><path d="M629,382L595,469L765,498Z" fill="#fbceb8" stroke="#fbceb8" stroke-width="1.51"/><path d="M629,382L765,498L755,377Z" fill="#fcd0b9" stroke="#fcd0b9" stroke-width="1.51"/><path d="M581,566L566,657L659,694Z" fill="#eac9bd" stroke="#eac9bd" stroke-width="1.51"/><path d="M471,647L566,657L581,566Z" fill="#ebc1b4" stroke="#ebc1b4" stroke-width="1.51"/><path d="M547,858L723,972L720,873Z" fill="#aaa0af" stroke="#aaa0af" stroke-width="1.51"/><path d="M720,873L723,972L813,961Z" fill="#a5a4bc" stroke="#a5a4bc" stroke-width="1.51"/><path d="M566,657L589,764L659,694Z" fill="#dac1b9" stroke="#dac1b9" stroke-width="1.51"/><path d="M640,289L755,377L822,320Z" fill="#f9bda0" stroke="#f9bda0" stroke-width="1.51"/><path d="M640,289L629,382L755,377Z" fill="#f9b99b" stroke="#f9b99b" stroke-width="1.51"/><path d="M1049,996L1084,1011L1138,879Z" fill="#8ca8d0" stroke="#8ca8d0" stroke-width="1.51"/><path d="M1037,1136L1084,1011L1049,996Z" fill="#8191b4" stroke="#8191b4" stroke-width="1.51"/><path d="M1332,911L1371,754L1225,767Z" fill="#86bbd9" stroke="#86bbd9" stroke-width="1.51"/><path d="M1411,444L1381,493L1429,495Z" fill="#bfcdd8" stroke="#bfcdd8" stroke-width="1.51"/><path d="M1363,666L1381,493L1272,534Z" fill="#c3dcea" stroke="#c3dcea" stroke-width="1.51"/><path d="M992,243L920,186L854,322Z" fill="#f2b4a3" stroke="#f2b4a3" stroke-width="1.51"/><path d="M1032,85L920,186L992,243Z" fill="#e7a095" stroke="#e7a095" stroke-width="1.51"/><path d="M1150,171L992,243L1150,308Z" fill="#e5aea3" stroke="#e5aea3" stroke-width="1.51"/><path d="M920,186L820,206L854,322Z" fill="#f1ac99" stroke="#f1ac99" stroke-width="1.51"/><path d="M742,1139L932,1161L911,1001Z" fill="#88869e" stroke="#88869e" stroke-width="1.51"/><path d="M547,858L720,873L658,801Z" fill="#b4aab1" stroke="#b4aab1" stroke-width="1.51"/><path d="M820,206L640,289L822,320Z" fill="#f4af95" stroke="#f4af95" stroke-width="1.51"/><path d="M402,395L460,516L595,469Z" fill="#f5b49c" stroke="#f5b49c" stroke-width="1.51"/><path d="M1213,920L1332,911L1225,767Z" fill="#7db2d5" stroke="#7db2d5" stroke-width="1.51"/><path d="M1247,1018L1332,911L1213,920Z" fill="#739fcc" stroke="#739fcc" stroke-width="1.51"/><path d="M1381,493L1411,444L1243,455Z" fill="#cbd4da" stroke="#cbd4da" stroke-width="1.51"/><path d="M1429,495L1381,493L1363,666Z" fill="#bcd6e7" stroke="#bcd6e7" stroke-width="1.51"/><path d="M1495,697L1429,495L1363,666Z" fill="#a9cce2" stroke="#a9cce2" stroke-width="1.51"/><path d="M1263,219L1150,171L1150,308Z" fill="#dba69e" stroke="#dba69e" stroke-width="1.51"/><path d="M1263,219L1150,308L1255,360Z" fill="#dcb7ad" stroke="#dcb7ad" stroke-width="1.51"/><path d="M1411,444L1366,329L1255,360Z" fill="#cdc3c1" stroke="#cdc3c1" stroke-width="1.51"/><path d="M589,764L547,858L658,801Z" fill="#bfadae" stroke="#bfadae" stroke-width="1.51"/><path d="M425,789L547,858L589,764Z" fill="#bea1a2" stroke="#bea1a2" stroke-width="1.51"/><path d="M1084,1011L1247,1018L1213,920Z" fill="#7d9dc8" stroke="#7d9dc8" stroke-width="1.51"/><path d="M1366,329L1263,219L1255,360Z" fill="#d3b3ac" stroke="#d3b3ac" stroke-width="1.51"/><path d="M1411,444L1497,334L1366,329Z" fill="#c0b6b9" stroke="#c0b6b9" stroke-width="1.51"/><path d="M1429,495L1436,448L1411,444Z" fill="#bdc9d4" stroke="#bdc9d4" stroke-width="1.51"/><path d="M566,657L471,647L589,764Z" fill="#ddbab0" stroke="#ddbab0" stroke-width="1.51"/><path d="M460,516L471,647L581,566Z" fill="#efbfb0" stroke="#efbfb0" stroke-width="1.51"/><path d="M460,516L581,566L595,469Z" fill="#f8c5b2" stroke="#f8c5b2" stroke-width="1.51"/><path d="M1371,754L1457,754L1363,666Z" fill="#92c2dd" stroke="#92c2dd" stroke-width="1.51"/><path d="M1560,393L1497,334L1436,448Z" fill="#b4b2bb" stroke="#b4b2bb" stroke-width="1.51"/><path d="M1474,872L1457,754L1371,754Z" fill="#75b0d3" stroke="#75b0d3" stroke-width="1.51"/><path d="M1474,872L1371,754L1332,911Z" fill="#6ba9d0" stroke="#6ba9d0" stroke-width="1.51"/><path d="M536,300L595,469L629,382Z" fill="#f8b697" stroke="#f8b697" stroke-width="1.51"/><path d="M820,206L653,207L640,289Z" fill="#ed9b81" stroke="#ed9b81" stroke-width="1.51"/><path d="M756,77L653,207L820,206Z" fill="#e58d7a" stroke="#e58d7a" stroke-width="1.51"/><path d="M536,300L629,382L640,289Z" fill="#f5a986" stroke="#f5a986" stroke-width="1.51"/><path d="M911,1001L1037,1136L1049,996Z" fill="#8795b6" stroke="#8795b6" stroke-width="1.51"/><path d="M1084,1011L1166,1150L1247,1018Z" fill="#7389ad" stroke="#7389ad" stroke-width="1.51"/><path d="M932,1161L1037,1136L911,1001Z" fill="#848caa" stroke="#848caa" stroke-width="1.51"/><path d="M1457,754L1495,697L1363,666Z" fill="#90c0dc" stroke="#90c0dc" stroke-width="1.51"/><path d="M1150,171L1032,85L992,243Z" fill="#e09b93" stroke="#e09b93" stroke-width="1.51"/><path d="M920,186L881,61L820,206Z" fill="#e59588" stroke="#e59588" stroke-width="1.51"/><path d="M1163,41L1032,85L1150,171Z" fill="#cf8887" stroke="#cf8887" stroke-width="1.51"/><path d="M586,186L536,300L640,289Z" fill="#ec9273" stroke="#ec9273" stroke-width="1.51"/><path d="M742,1139L911,1001L813,961Z" fill="#9290aa" stroke="#9290aa" stroke-width="1.51"/><path d="M742,1139L813,961L723,972Z" fill="#968ea6" stroke="#968ea6" stroke-width="1.51"/><path d="M1032,85L881,61L920,186Z" fill="#e09089" stroke="#e09089" stroke-width="1.51"/><path d="M1247,1018L1389,990L1332,911Z" fill="#6595c6" stroke="#6595c6" stroke-width="1.51"/><path d="M1457,754L1548,760L1495,697Z" fill="#7bb3d5" stroke="#7bb3d5" stroke-width="1.51"/><path d="M1393,1161L1389,990L1247,1018Z" fill="#557ca6" stroke="#557ca6" stroke-width="1.51"/><path d="M1389,990L1474,872L1332,911Z" fill="#5c98c6" stroke="#5c98c6" stroke-width="1.51"/><path d="M1037,1136L1166,1150L1084,1011Z" fill="#7787a7" stroke="#7787a7" stroke-width="1.51"/><path d="M1051,1207L1166,1150L1037,1136Z" fill="#7887a7" stroke="#7887a7" stroke-width="1.51"/><path d="M646,1100L742,1139L723,972Z" fill="#8c7a8c" stroke="#8c7a8c" stroke-width="1.51"/><path d="M471,647L425,789L589,764Z" fill="#cfaba5" stroke="#cfaba5" stroke-width="1.51"/><path d="M325,647L425,789L471,647Z" fill="#d4a29b" stroke="#d4a29b" stroke-width="1.51"/><path d="M646,1100L723,972L573,1044Z" fill="#947b8e" stroke="#947b8e" stroke-width="1.51"/><path d="M653,207L586,186L640,289Z" fill="#e98e72" stroke="#e98e72" stroke-width="1.51"/><path d="M573,113L586,186L653,207Z" fill="#e07b64" stroke="#e07b64" stroke-width="1.51"/><path d="M881,61L756,77L820,206Z" fill="#df887b" stroke="#df887b" stroke-width="1.51"/><path d="M1296,74L1163,41L1150,171Z" fill="#c48384" stroke="#c48384" stroke-width="1.51"/><path d="M1366,329L1353,176L1263,219Z" fill="#c99e9b" stroke="#c99e9b" stroke-width="1.51"/><path d="M1459,183L1353,176L1366,329Z" fill="#be9394" stroke="#be9394" stroke-width="1.51"/><path d="M573,1044L723,972L547,858Z" fill="#a48da1" stroke="#a48da1" stroke-width="1.51"/><path d="M438,891L573,1044L547,858Z" fill="#a58495" stroke="#a58495" stroke-width="1.51"/><path d="M1474,872L1548,760L1457,754Z" fill="#69a8cf" stroke="#69a8cf" stroke-width="1.51"/><path d="M1560,393L1436,448L1615,524Z" fill="#abb9cb" stroke="#abb9cb" stroke-width="1.51"/><path d="M1436,448L1497,334L1411,444Z" fill="#bcbdc4" stroke="#bcbdc4" stroke-width="1.51"/><path d="M1436,448L1429,495L1615,524Z" fill="#b0c3d5" stroke="#b0c3d5" stroke-width="1.51"/><path d="M932,1161L1051,1207L1037,1136Z" fill="#808ba9" stroke="#808ba9" stroke-width="1.51"/><path d="M929,1224L1051,1207L932,1161Z" fill="#838caa" stroke="#838caa" stroke-width="1.51"/><path d="M425,789L438,891L547,858Z" fill="#b08f96" stroke="#b08f96" stroke-width="1.51"/><path d="M1296,74L1150,171L1263,219Z" fill="#cb8e8c" stroke="#cb8e8c" stroke-width="1.51"/><path d="M1032,85L1028,-21L881,61Z" fill="#c38585" stroke="#c38585" stroke-width="1.51"/><path d="M536,300L402,395L595,469Z" fill="#f4aa8d" stroke="#f4aa8d" stroke-width="1.51"/><path d="M460,516L325,647L471,647Z" fill="#e7ada2" stroke="#e7ada2" stroke-width="1.51"/><path d="M406,344L402,395L536,300Z" fill="#ed9477" stroke="#ed9477" stroke-width="1.51"/><path d="M754,1201L929,1224L932,1161Z" fill="#8786a0" stroke="#8786a0" stroke-width="1.51"/><path d="M754,1201L932,1161L742,1139Z" fill="#898298" stroke="#898298" stroke-width="1.51"/><path d="M1166,1150L1250,1161L1247,1018Z" fill="#667fa3" stroke="#667fa3" stroke-width="1.51"/><path d="M1145,1225L1250,1161L1166,1150Z" fill="#6c82a5" stroke="#6c82a5" stroke-width="1.51"/><path d="M473,178L406,344L536,300Z" fill="#e68367" stroke="#e68367" stroke-width="1.51"/><path d="M712,1269L754,1201L646,1100Z" fill="#8a7789" stroke="#8a7789" stroke-width="1.51"/><path d="M646,1100L754,1201L742,1139Z" fill="#8b798a" stroke="#8b798a" stroke-width="1.51"/><path d="M1328,67L1296,74L1353,176Z" fill="#b87b80" stroke="#b87b80" stroke-width="1.51"/><path d="M1615,524L1429,495L1495,697Z" fill="#a3c5de" stroke="#a3c5de" stroke-width="1.51"/><path d="M586,186L473,178L536,300Z" fill="#e37d62" stroke="#e37d62" stroke-width="1.51"/><path d="M756,77L667,62L653,207Z" fill="#dc7a69" stroke="#dc7a69" stroke-width="1.51"/><path d="M742,-13L667,62L756,77Z" fill="#c27268" stroke="#c27268" stroke-width="1.51"/><path d="M742,-13L756,77L881,61Z" fill="#c47a72" stroke="#c47a72" stroke-width="1.51"/><path d="M1389,990L1461,1008L1474,872Z" fill="#4e8bc0" stroke="#4e8bc0" stroke-width="1.51"/><path d="M1474,872L1636,888L1548,760Z" fill="#4c96c5" stroke="#4c96c5" stroke-width="1.51"/><path d="M1443,1132L1461,1008L1389,990Z" fill="#4576a5" stroke="#4576a5" stroke-width="1.51"/><path d="M1459,183L1366,329L1497,334Z" fill="#bb9c9e" stroke="#bb9c9e" stroke-width="1.51"/><path d="M1353,176L1296,74L1263,219Z" fill="#c2898a" stroke="#c2898a" stroke-width="1.51"/><path d="M929,1224L1145,1225L1051,1207Z" fill="#7c89a8" stroke="#7c89a8" stroke-width="1.51"/><path d="M1051,1207L1145,1225L1166,1150Z" fill="#7486a7" stroke="#7486a7" stroke-width="1.51"/><path d="M1085,-59L1028,-21L1163,41Z" fill="#aa7a80" stroke="#aa7a80" stroke-width="1.51"/><path d="M1163,41L1028,-21L1032,85Z" fill="#ba8083" stroke="#ba8083" stroke-width="1.51"/><path d="M667,62L573,113L653,207Z" fill="#db7461" stroke="#db7461" stroke-width="1.51"/><path d="M573,1044L530,1085L646,1100Z" fill="#8b6975" stroke="#8b6975" stroke-width="1.51"/><path d="M412,1004L530,1085L573,1044Z" fill="#8f6576" stroke="#8f6576" stroke-width="1.51"/><path d="M332,439L460,516L402,395Z" fill="#eea38e" stroke="#eea38e" stroke-width="1.51"/><path d="M302,543L325,647L460,516Z" fill="#e8a79b" stroke="#e8a79b" stroke-width="1.51"/><path d="M425,789L299,865L438,891Z" fill="#ab818a" stroke="#ab818a" stroke-width="1.51"/><path d="M1618,690L1615,524L1495,697Z" fill="#90b7d8" stroke="#90b7d8" stroke-width="1.51"/><path d="M1560,216L1459,183L1497,334Z" fill="#ae8990" stroke="#ae8990" stroke-width="1.51"/><path d="M1548,760L1618,690L1495,697Z" fill="#7aafd3" stroke="#7aafd3" stroke-width="1.51"/><path d="M1636,888L1618,690L1548,760Z" fill="#619fca" stroke="#619fca" stroke-width="1.51"/><path d="M1296,74L1210,-65L1163,41Z" fill="#a2757d" stroke="#a2757d" stroke-width="1.51"/><path d="M1459,183L1328,67L1353,176Z" fill="#b67e83" stroke="#b67e83" stroke-width="1.51"/><path d="M1145,1225L1284,1188L1250,1161Z" fill="#657fa3" stroke="#657fa3" stroke-width="1.51"/><path d="M1250,1161L1393,1161L1247,1018Z" fill="#597aa0" stroke="#597aa0" stroke-width="1.51"/><path d="M1560,393L1567,340L1497,334Z" fill="#afa4ad" stroke="#afa4ad" stroke-width="1.51"/><path d="M1733,379L1567,340L1560,393Z" fill="#a99dad" stroke="#a99dad" stroke-width="1.51"/><path d="M573,113L473,178L586,186Z" fill="#da6e59" stroke="#da6e59" stroke-width="1.51"/><path d="M256,350L332,439L406,344Z" fill="#e58972" stroke="#e58972" stroke-width="1.51"/><path d="M406,344L332,439L402,395Z" fill="#ea947b" stroke="#ea947b" stroke-width="1.51"/><path d="M923,-84L742,-13L881,61Z" fill="#b47876" stroke="#b47876" stroke-width="1.51"/><path d="M667,62L646,7L573,113Z" fill="#c5685a" stroke="#c5685a" stroke-width="1.51"/><path d="M573,113L408,69L473,178Z" fill="#cf594a" stroke="#cf594a" stroke-width="1.51"/><path d="M332,439L302,543L460,516Z" fill="#eca494" stroke="#eca494" stroke-width="1.51"/><path d="M325,647L303,751L425,789Z" fill="#c89492" stroke="#c89492" stroke-width="1.51"/><path d="M438,891L412,1004L573,1044Z" fill="#9c7287" stroke="#9c7287" stroke-width="1.51"/><path d="M262,698L303,751L325,647Z" fill="#cc918f" stroke="#cc918f" stroke-width="1.51"/><path d="M299,865L412,1004L438,891Z" fill="#a07082" stroke="#a07082" stroke-width="1.51"/><path d="M1028,-21L923,-84L881,61Z" fill="#b57e80" stroke="#b57e80" stroke-width="1.51"/><path d="M1210,-65L1085,-59L1163,41Z" fill="#a5777f" stroke="#a5777f" stroke-width="1.51"/><path d="M1461,1008L1551,976L1474,872Z" fill="#4285bd" stroke="#4285bd" stroke-width="1.51"/><path d="M1582,1156L1551,976L1461,1008Z" fill="#2c699d" stroke="#2c699d" stroke-width="1.51"/><path d="M742,-13L646,7L667,62Z" fill="#b86960" stroke="#b86960" stroke-width="1.51"/><path d="M1390,1217L1393,1161L1284,1188Z" fill="#4f759d" stroke="#4f759d" stroke-width="1.51"/><path d="M1284,1188L1393,1161L1250,1161Z" fill="#57799f" stroke="#57799f" stroke-width="1.51"/><path d="M742,-13L655,-153L646,7Z" fill="#b1665e" stroke="#b1665e" stroke-width="1.51"/><path d="M1035,-136L923,-84L1028,-21Z" fill="#b27e82" stroke="#b27e82" stroke-width="1.51"/><path d="M1393,1161L1443,1132L1389,990Z" fill="#456e99" stroke="#456e99" stroke-width="1.51"/><path d="M929,1224L712,1269L1145,1225Z" fill="#858aa6" stroke="#858aa6" stroke-width="1.51"/><path d="M754,1201L712,1269L929,1224Z" fill="#898197" stroke="#898197" stroke-width="1.51"/><path d="M530,1238L712,1269L646,1100Z" fill="#8b6e7c" stroke="#8b6e7c" stroke-width="1.51"/><path d="M530,1238L646,1100L530,1085Z" fill="#8a6572" stroke="#8a6572" stroke-width="1.51"/><path d="M1459,183L1487,41L1328,67Z" fill="#a66f7a" stroke="#a66f7a" stroke-width="1.51"/><path d="M1567,340L1560,216L1497,334Z" fill="#ad949c" stroke="#ad949c" stroke-width="1.51"/><path d="M1707,269L1560,216L1567,340Z" fill="#a68592" stroke="#a68592" stroke-width="1.51"/><path d="M303,751L299,865L425,789Z" fill="#b5858a" stroke="#b5858a" stroke-width="1.51"/><path d="M190,584L262,698L325,647Z" fill="#d6938e" stroke="#d6938e" stroke-width="1.51"/><path d="M1618,690L1679,526L1615,524Z" fill="#97b3d6" stroke="#97b3d6" stroke-width="1.51"/><path d="M1615,524L1679,526L1560,393Z" fill="#a4b2cc" stroke="#a4b2cc" stroke-width="1.51"/><path d="M1739,678L1679,526L1618,690Z" fill="#8baad2" stroke="#8baad2" stroke-width="1.51"/><path d="M262,745L299,865L303,751Z" fill="#b58186" stroke="#b58186" stroke-width="1.51"/><path d="M1363,-43L1210,-65L1296,74Z" fill="#936e79" stroke="#936e79" stroke-width="1.51"/><path d="M1085,-59L1035,-136L1028,-21Z" fill="#ad7c81" stroke="#ad7c81" stroke-width="1.51"/><path d="M1363,-43L1296,74L1328,67Z" fill="#9a707a" stroke="#9a707a" stroke-width="1.51"/><path d="M1551,976L1636,888L1474,872Z" fill="#3b87bd" stroke="#3b87bd" stroke-width="1.51"/><path d="M1678,955L1636,888L1551,976Z" fill="#3279b6" stroke="#3279b6" stroke-width="1.51"/><path d="M262,698L262,745L303,751Z" fill="#c2898a" stroke="#c2898a" stroke-width="1.51"/><path d="M375,1113L429,1099L412,1004Z" fill="#834e5f" stroke="#834e5f" stroke-width="1.51"/><path d="M412,1004L429,1099L530,1085Z" fill="#885869" stroke="#885869" stroke-width="1.51"/><path d="M1453,1270L1390,1217L1284,1188Z" fill="#4b729c" stroke="#4b729c" stroke-width="1.51"/><path d="M1393,1161L1390,1217L1443,1132Z" fill="#456e99" stroke="#456e99" stroke-width="1.51"/><path d="M1668,1147L1678,955L1551,976Z" fill="#25629e" stroke="#25629e" stroke-width="1.51"/><path d="M1453,1270L1284,1188L1145,1225Z" fill="#5a7aa0" stroke="#5a7aa0" stroke-width="1.51"/><path d="M473,178L302,280L406,344Z" fill="#df735b" stroke="#df735b" stroke-width="1.51"/><path d="M332,439L213,379L302,543Z" fill="#e59282" stroke="#e59282" stroke-width="1.51"/><path d="M302,543L190,584L325,647Z" fill="#de9891" stroke="#de9891" stroke-width="1.51"/><path d="M281,211L302,280L473,178Z" fill="#d45e4b" stroke="#d45e4b" stroke-width="1.51"/><path d="M1174,-123L1035,-136L1085,-59Z" fill="#a97a80" stroke="#a97a80" stroke-width="1.51"/><path d="M923,-84L865,-165L742,-13Z" fill="#b47775" stroke="#b47775" stroke-width="1.51"/><path d="M299,865L288,1007L412,1004Z" fill="#976179" stroke="#976179" stroke-width="1.51"/><path d="M262,745L260,874L299,865Z" fill="#a97680" stroke="#a97680" stroke-width="1.51"/><path d="M200,998L260,874L124,866Z" fill="#94586f" stroke="#94586f" stroke-width="1.51"/><path d="M302,280L256,350L406,344Z" fill="#e17a61" stroke="#e17a61" stroke-width="1.51"/><path d="M80,701L124,866L262,745Z" fill="#aa747c" stroke="#aa747c" stroke-width="1.51"/><path d="M1560,216L1562,130L1459,183Z" fill="#a37480" stroke="#a37480" stroke-width="1.51"/><path d="M1664,124L1562,130L1560,216Z" fill="#9c6779" stroke="#9c6779" stroke-width="1.51"/><path d="M1210,-65L1174,-123L1085,-59Z" fill="#a4777f" stroke="#a4777f" stroke-width="1.51"/><path d="M1264,-114L1174,-123L1210,-65Z" fill="#9d737c" stroke="#9d737c" stroke-width="1.51"/><path d="M429,1099L530,1238L530,1085Z" fill="#865a68" stroke="#865a68" stroke-width="1.51"/><path d="M461,1256L530,1238L429,1099Z" fill="#855665" stroke="#855665" stroke-width="1.51"/><path d="M1465,-6L1363,-43L1328,67Z" fill="#886675" stroke="#886675" stroke-width="1.51"/><path d="M1562,130L1487,41L1459,183Z" fill="#9f6978" stroke="#9f6978" stroke-width="1.51"/><path d="M1679,526L1733,379L1560,393Z" fill="#a4a7bf" stroke="#a4a7bf" stroke-width="1.51"/><path d="M1745,767L1739,678L1618,690Z" fill="#729dca" stroke="#729dca" stroke-width="1.51"/><path d="M288,1007L375,1113L412,1004Z" fill="#874f63" stroke="#874f63" stroke-width="1.51"/><path d="M213,379L190,584L302,543Z" fill="#e39287" stroke="#e39287" stroke-width="1.51"/><path d="M486,-59L408,69L573,113Z" fill="#b54d45" stroke="#b54d45" stroke-width="1.51"/><path d="M145,334L213,379L256,350Z" fill="#d9705e" stroke="#d9705e" stroke-width="1.51"/><path d="M486,-59L573,113L646,7Z" fill="#b4594e" stroke="#b4594e" stroke-width="1.51"/><path d="M1363,-43L1264,-114L1210,-65Z" fill="#946e7a" stroke="#946e7a" stroke-width="1.51"/><path d="M1409,-178L1264,-114L1363,-43Z" fill="#8c6a77" stroke="#8c6a77" stroke-width="1.51"/><path d="M1035,-136L865,-165L923,-84Z" fill="#b57e80" stroke="#b57e80" stroke-width="1.51"/><path d="M766,-203L865,-165L1035,-136Z" fill="#b57a7a" stroke="#b57a7a" stroke-width="1.51"/><path d="M766,-203L1035,-136L1409,-178Z" fill="#ab7b80" stroke="#ab7b80" stroke-width="1.51"/><path d="M1636,888L1745,767L1618,690Z" fill="#5c96c6" stroke="#5c96c6" stroke-width="1.51"/><path d="M1582,1156L1461,1008L1443,1132Z" fill="#326493" stroke="#326493" stroke-width="1.51"/><path d="M260,874L288,1007L299,865Z" fill="#996378" stroke="#996378" stroke-width="1.51"/><path d="M200,998L288,1007L260,874Z" fill="#915571" stroke="#915571" stroke-width="1.51"/><path d="M1724,853L1745,767L1636,888Z" fill="#4486bd" stroke="#4486bd" stroke-width="1.51"/><path d="M1678,955L1724,853L1636,888Z" fill="#337ab7" stroke="#337ab7" stroke-width="1.51"/><path d="M1487,41L1465,-6L1328,67Z" fill="#8d6575" stroke="#8d6575" stroke-width="1.51"/><path d="M1622,-35L1465,-6L1487,41Z" fill="#71546c" stroke="#71546c" stroke-width="1.51"/><path d="M256,350L213,379L332,439Z" fill="#e1836f" stroke="#e1836f" stroke-width="1.51"/><path d="M145,334L256,350L302,280Z" fill="#d86c58" stroke="#d86c58" stroke-width="1.51"/><path d="M1778,499L1733,379L1679,526Z" fill="#9ea2c2" stroke="#9ea2c2" stroke-width="1.51"/><path d="M1778,499L1679,526L1739,678Z" fill="#93a8d0" stroke="#93a8d0" stroke-width="1.51"/><path d="M408,69L281,211L473,178Z" fill="#cc4f43" stroke="#cc4f43" stroke-width="1.51"/><path d="M1745,767L1776,698L1739,678Z" fill="#6d96c3" stroke="#6d96c3" stroke-width="1.51"/><path d="M1793,724L1776,698L1745,767Z" fill="#6791be" stroke="#6791be" stroke-width="1.51"/><path d="M1733,379L1707,269L1567,340Z" fill="#a68d9e" stroke="#a68d9e" stroke-width="1.51"/><path d="M1562,130L1622,-35L1487,41Z" fill="#80576d" stroke="#80576d" stroke-width="1.51"/><path d="M1390,1217L1453,1270L1443,1132Z" fill="#406c98" stroke="#406c98" stroke-width="1.51"/><path d="M712,1269L1453,1270L1145,1225Z" fill="#7687a7" stroke="#7687a7" stroke-width="1.51"/><path d="M1733,379L1775,220L1707,269Z" fill="#9e788e" stroke="#9e788e" stroke-width="1.51"/><path d="M1776,698L1778,499L1739,678Z" fill="#859fc7" stroke="#859fc7" stroke-width="1.51"/><path d="M1453,1270L1582,1156L1443,1132Z" fill="#326493" stroke="#326493" stroke-width="1.51"/><path d="M530,1238L461,1256L712,1269Z" fill="#8a6572" stroke="#8a6572" stroke-width="1.51"/><path d="M375,1113L461,1256L429,1099Z" fill="#824e5e" stroke="#824e5e" stroke-width="1.51"/><path d="M320,1279L461,1256L375,1113Z" fill="#804859" stroke="#804859" stroke-width="1.51"/><path d="M281,78L233,159L281,211Z" fill="#c03938" stroke="#c03938" stroke-width="1.51"/><path d="M521,-84L486,-59L646,7Z" fill="#aa534a" stroke="#aa534a" stroke-width="1.51"/><path d="M766,-203L655,-153L742,-13Z" fill="#b26c65" stroke="#b26c65" stroke-width="1.51"/><path d="M655,-153L521,-84L646,7Z" fill="#ae5c53" stroke="#ae5c53" stroke-width="1.51"/><path d="M1795,863L1793,724L1745,767Z" fill="#5385b7" stroke="#5385b7" stroke-width="1.51"/><path d="M1951,559L1926,428L1778,499Z" fill="#8b8ca8" stroke="#8b8ca8" stroke-width="1.51"/><path d="M1795,863L1745,767L1724,853Z" fill="#4380b6" stroke="#4380b6" stroke-width="1.51"/><path d="M1795,863L1724,853L1779,950Z" fill="#2e71ad" stroke="#2e71ad" stroke-width="1.51"/><path d="M1409,-178L1035,-136L1174,-123Z" fill="#9e747d" stroke="#9e747d" stroke-width="1.51"/><path d="M865,-165L766,-203L742,-13Z" fill="#b4736f" stroke="#b4736f" stroke-width="1.51"/><path d="M1778,499L1794,415L1733,379Z" fill="#9b97b2" stroke="#9b97b2" stroke-width="1.51"/><path d="M1873,350L1794,415L1926,428Z" fill="#918094" stroke="#918094" stroke-width="1.51"/><path d="M1701,167L1560,216L1707,269Z" fill="#9e6e82" stroke="#9e6e82" stroke-width="1.51"/><path d="M1701,167L1664,124L1560,216Z" fill="#996479" stroke="#996479" stroke-width="1.51"/><path d="M1775,220L1701,167L1707,269Z" fill="#99667e" stroke="#99667e" stroke-width="1.51"/><path d="M288,1007L213,1139L375,1113Z" fill="#793b50" stroke="#793b50" stroke-width="1.51"/><path d="M124,866L260,874L262,745Z" fill="#a56e7a" stroke="#a56e7a" stroke-width="1.51"/><path d="M1926,428L1794,415L1778,499Z" fill="#938fa8" stroke="#938fa8" stroke-width="1.51"/><path d="M1779,950L1724,853L1678,955Z" fill="#2b71b2" stroke="#2b71b2" stroke-width="1.51"/><path d="M521,-84L531,-131L486,-59Z" fill="#a84c45" stroke="#a84c45" stroke-width="1.51"/><path d="M281,78L281,211L408,69Z" fill="#c13a38" stroke="#c13a38" stroke-width="1.51"/><path d="M655,-153L531,-131L521,-84Z" fill="#ac564d" stroke="#ac564d" stroke-width="1.51"/><path d="M423,-181L531,-131L655,-153Z" fill="#a95049" stroke="#a95049" stroke-width="1.51"/><path d="M281,211L145,334L302,280Z" fill="#d25e4e" stroke="#d25e4e" stroke-width="1.51"/><path d="M213,379L75,565L190,584Z" fill="#d88982" stroke="#d88982" stroke-width="1.51"/><path d="M281,78L408,69L288,11Z" fill="#ab3033" stroke="#ab3033" stroke-width="1.51"/><path d="M143,195L145,334L281,211Z" fill="#c94c43" stroke="#c94c43" stroke-width="1.51"/><path d="M80,701L262,745L262,698Z" fill="#c18184" stroke="#c18184" stroke-width="1.51"/><path d="M288,11L408,69L486,-59Z" fill="#a13737" stroke="#a13737" stroke-width="1.51"/><path d="M1789,1120L1779,950L1678,955Z" fill="#1b599b" stroke="#1b599b" stroke-width="1.51"/><path d="M1582,1156L1668,1147L1551,976Z" fill="#21588d" stroke="#21588d" stroke-width="1.51"/><path d="M1641,1278L1668,1147L1582,1156Z" fill="#1e558b" stroke="#1e558b" stroke-width="1.51"/><path d="M80,701L262,698L190,584Z" fill="#ca8586" stroke="#ca8586" stroke-width="1.51"/><path d="M75,565L80,701L190,584Z" fill="#c38485" stroke="#c38485" stroke-width="1.51"/><path d="M1873,350L1775,220L1733,379Z" fill="#99788a" stroke="#99788a" stroke-width="1.51"/><path d="M1660,-54L1622,-35L1664,124Z" fill="#6d4766" stroke="#6d4766" stroke-width="1.51"/><path d="M31,432L75,565L213,379Z" fill="#cc7e76" stroke="#cc7e76" stroke-width="1.51"/><path d="M1264,-114L1409,-178L1174,-123Z" fill="#946e7a" stroke="#946e7a" stroke-width="1.51"/><path d="M1465,-6L1409,-178L1363,-43Z" fill="#826273" stroke="#826273" stroke-width="1.51"/><path d="M1483,-194L1409,-178L1465,-6Z" fill="#7c5d71" stroke="#7c5d71" stroke-width="1.51"/><path d="M1622,-35L1562,130L1664,124Z" fill="#86546c" stroke="#86546c" stroke-width="1.51"/><path d="M423,-181L288,11L486,-59Z" fill="#9e3737" stroke="#9e3737" stroke-width="1.51"/><path d="M281,78L217,76L233,159Z" fill="#b6252f" stroke="#b6252f" stroke-width="1.51"/><path d="M233,159L143,195L281,211Z" fill="#c23d3a" stroke="#c23d3a" stroke-width="1.51"/><path d="M1660,-54L1664,124L1827,10Z" fill="#6d4164" stroke="#6d4164" stroke-width="1.51"/><path d="M200,998L213,1139L288,1007Z" fill="#7c3c55" stroke="#7c3c55" stroke-width="1.51"/><path d="M145,1117L213,1139L200,998Z" fill="#712d47" stroke="#712d47" stroke-width="1.51"/><path d="M124,866L75,974L200,998Z" fill="#824c6a" stroke="#824c6a" stroke-width="1.51"/><path d="M80,701L57,744L124,866Z" fill="#9b6e79" stroke="#9b6e79" stroke-width="1.51"/><path d="M32,696L57,744L80,701Z" fill="#a2747d" stroke="#a2747d" stroke-width="1.51"/><path d="M288,11L217,76L281,78Z" fill="#a5242e" stroke="#a5242e" stroke-width="1.51"/><path d="M145,334L69,376L213,379Z" fill="#ce6c5e" stroke="#ce6c5e" stroke-width="1.51"/><path d="M217,76L143,195L233,159Z" fill="#b92931" stroke="#b92931" stroke-width="1.51"/><path d="M461,1256L320,1279L712,1269Z" fill="#865a69" stroke="#865a69" stroke-width="1.51"/><path d="M712,1269L1641,1278L1453,1270Z" fill="#5e7ba1" stroke="#5e7ba1" stroke-width="1.51"/><path d="M225,1194L320,1279L375,1113Z" fill="#7a3d52" stroke="#7a3d52" stroke-width="1.51"/><path d="M75,565L32,696L80,701Z" fill="#b27c81" stroke="#b27c81" stroke-width="1.51"/><path d="M4,355L69,376L2,214Z" fill="#b0564c" stroke="#b0564c" stroke-width="1.51"/><path d="M1798,121L1664,124L1701,167Z" fill="#90536f" stroke="#90536f" stroke-width="1.51"/><path d="M1794,415L1873,350L1733,379Z" fill="#99879c" stroke="#99879c" stroke-width="1.51"/><path d="M1778,499L1776,698L1952,623Z" fill="#8195b9" stroke="#8195b9" stroke-width="1.51"/><path d="M145,1117L225,1194L213,1139Z" fill="#722e47" stroke="#722e47" stroke-width="1.51"/><path d="M-133,656L32,696L75,565Z" fill="#a6787f" stroke="#a6787f" stroke-width="1.51"/><path d="M1453,1270L1641,1278L1582,1156Z" fill="#255d8f" stroke="#255d8f" stroke-width="1.51"/><path d="M1668,1147L1789,1120L1678,955Z" fill="#164e89" stroke="#164e89" stroke-width="1.51"/><path d="M320,1279L1641,1278L712,1269Z" fill="#8788a2" stroke="#8788a2" stroke-width="1.51"/><path d="M213,1139L225,1194L375,1113Z" fill="#78394f" stroke="#78394f" stroke-width="1.51"/><path d="M75,974L124,866L-6,916Z" fill="#774c69" stroke="#774c69" stroke-width="1.51"/><path d="M1409,-178L1483,-194L766,-203Z" fill="#9c737c" stroke="#9c737c" stroke-width="1.51"/><path d="M1583,-175L1483,-194L1465,-6Z" fill="#74566d" stroke="#74566d" stroke-width="1.51"/><path d="M69,376L31,432L213,379Z" fill="#c87266" stroke="#c87266" stroke-width="1.51"/><path d="M4,355L31,432L69,376Z" fill="#b96a61" stroke="#b96a61" stroke-width="1.51"/><path d="M1622,-35L1583,-175L1465,-6Z" fill="#6e506a" stroke="#6e506a" stroke-width="1.51"/><path d="M1798,121L1701,167L1775,220Z" fill="#8f556f" stroke="#8f556f" stroke-width="1.51"/><path d="M1773,1204L1789,1120L1668,1147Z" fill="#124883" stroke="#124883" stroke-width="1.51"/><path d="M1779,950L1895,925L1795,863Z" fill="#26639f" stroke="#26639f" stroke-width="1.51"/><path d="M1952,623L1776,698L1793,724Z" fill="#6f8db4" stroke="#6f8db4" stroke-width="1.51"/><path d="M1918,154L1798,121L1775,220Z" fill="#854960" stroke="#854960" stroke-width="1.51"/><path d="M531,-131L423,-181L486,-59Z" fill="#a54641" stroke="#a54641" stroke-width="1.51"/><path d="M288,11L165,13L217,76Z" fill="#9a182a" stroke="#9a182a" stroke-width="1.51"/><path d="M766,-203L423,-181L655,-153Z" fill="#ae5d54" stroke="#ae5d54" stroke-width="1.51"/><path d="M11,817L124,866L57,744Z" fill="#8c6474" stroke="#8c6474" stroke-width="1.51"/><path d="M75,974L145,1117L200,998Z" fill="#733755" stroke="#733755" stroke-width="1.51"/><path d="M1641,1278L1680,1277L1668,1147Z" fill="#1b5189" stroke="#1b5189" stroke-width="1.51"/><path d="M1873,350L1918,154L1775,220Z" fill="#8b596b" stroke="#8b596b" stroke-width="1.51"/><path d="M1952,735L1793,724L1795,863Z" fill="#517dab" stroke="#517dab" stroke-width="1.51"/><path d="M1916,1081L1895,925L1779,950Z" fill="#164f8c" stroke="#164f8c" stroke-width="1.51"/><path d="M32,696L11,817L57,744Z" fill="#946d79" stroke="#946d79" stroke-width="1.51"/><path d="M-123,762L11,817L32,696Z" fill="#8b6977" stroke="#8b6977" stroke-width="1.51"/><path d="M1952,735L1952,623L1793,724Z" fill="#6682a7" stroke="#6682a7" stroke-width="1.51"/><path d="M1952,623L1951,559L1778,499Z" fill="#838faf" stroke="#838faf" stroke-width="1.51"/><path d="M1895,925L1952,735L1795,863Z" fill="#346a9b" stroke="#346a9b" stroke-width="1.51"/><path d="M1916,1081L1943,958L1895,925Z" fill="#114780" stroke="#114780" stroke-width="1.51"/><path d="M1680,1277L1773,1204L1668,1147Z" fill="#164d87" stroke="#164d87" stroke-width="1.51"/><path d="M1926,428L1934,356L1873,350Z" fill="#8c7485" stroke="#8c7485" stroke-width="1.51"/><path d="M2065,447L1934,356L1926,428Z" fill="#8a7a8d" stroke="#8a7a8d" stroke-width="1.51"/><path d="M1681,-176L1583,-175L1660,-54Z" fill="#684766" stroke="#684766" stroke-width="1.51"/><path d="M1660,-54L1583,-175L1622,-35Z" fill="#6a4967" stroke="#6a4967" stroke-width="1.51"/><path d="M31,432L-34,488L75,565Z" fill="#ba7c7a" stroke="#ba7c7a" stroke-width="1.51"/><path d="M2,214L69,376L145,334Z" fill="#b9584d" stroke="#b9584d" stroke-width="1.51"/><path d="M2,214L145,334L143,195Z" fill="#b5463f" stroke="#b5463f" stroke-width="1.51"/><path d="M217,76L78,114L143,195Z" fill="#ac1f2c" stroke="#ac1f2c" stroke-width="1.51"/><path d="M246,-154L165,13L288,11Z" fill="#8f1729" stroke="#8f1729" stroke-width="1.51"/><path d="M4,355L-34,488L31,432Z" fill="#b4706a" stroke="#b4706a" stroke-width="1.51"/><path d="M75,974L-51,1142L145,1117Z" fill="#582542" stroke="#582542" stroke-width="1.51"/><path d="M11,817L-6,916L124,866Z" fill="#79566d" stroke="#79566d" stroke-width="1.51"/><path d="M-32,988L-6,916L-100,980Z" fill="#643e62" stroke="#643e62" stroke-width="1.51"/><path d="M165,13L78,114L217,76Z" fill="#9b1128" stroke="#9b1128" stroke-width="1.51"/><path d="M1895,925L2080,852L1952,735Z" fill="#336594" stroke="#336594" stroke-width="1.51"/><path d="M1916,1081L1779,950L1789,1120Z" fill="#10437c" stroke="#10437c" stroke-width="1.51"/><path d="M78,114L2,214L143,195Z" fill="#a52c31" stroke="#a52c31" stroke-width="1.51"/><path d="M-120,443L-95,498L-34,488Z" fill="#b47776" stroke="#b47776" stroke-width="1.51"/><path d="M1798,121L1827,10L1664,124Z" fill="#7e4262" stroke="#7e4262" stroke-width="1.51"/><path d="M1918,154L1827,10L1798,121Z" fill="#773753" stroke="#773753" stroke-width="1.51"/><path d="M1934,356L1918,154L1873,350Z" fill="#885e6c" stroke="#885e6c" stroke-width="1.51"/><path d="M1977,106L1918,154L2035,201Z" fill="#78394f" stroke="#78394f" stroke-width="1.51"/><path d="M1951,559L2065,447L1926,428Z" fill="#88859d" stroke="#88859d" stroke-width="1.51"/><path d="M1952,623L2023,653L1951,559Z" fill="#7887a7" stroke="#7887a7" stroke-width="1.51"/><path d="M1952,735L2023,653L1952,623Z" fill="#6b81a4" stroke="#6b81a4" stroke-width="1.51"/><path d="M2036,743L2023,653L1952,735Z" fill="#5f7ca1" stroke="#5f7ca1" stroke-width="1.51"/><path d="M2080,852L2036,743L1952,735Z" fill="#4a719b" stroke="#4a719b" stroke-width="1.51"/><path d="M1974,1219L1916,1081L1789,1120Z" fill="#073366" stroke="#073366" stroke-width="1.51"/><path d="M423,-181L246,-154L288,11Z" fill="#972930" stroke="#972930" stroke-width="1.51"/><path d="M165,13L57,13L78,114Z" fill="#8a0925" stroke="#8a0925" stroke-width="1.51"/><path d="M78,114L-37,98L2,214Z" fill="#941c2a" stroke="#941c2a" stroke-width="1.51"/><path d="M-51,1214L145,1280L145,1117Z" fill="#5c2642" stroke="#5c2642" stroke-width="1.51"/><path d="M145,1117L145,1280L225,1194Z" fill="#6e2c46" stroke="#6e2c46" stroke-width="1.51"/><path d="M225,1194L145,1280L320,1279Z" fill="#74334a" stroke="#74334a" stroke-width="1.51"/><path d="M320,1279L145,1280L1641,1278Z" fill="#8a7788" stroke="#8a7788" stroke-width="1.51"/><path d="M1791,-110L1681,-176L1660,-54Z" fill="#643e62" stroke="#643e62" stroke-width="1.51"/><path d="M1583,-175L1681,-176L1483,-194Z" fill="#6c4e69" stroke="#6c4e69" stroke-width="1.51"/><path d="M423,-181L291,-203L246,-154Z" fill="#972930" stroke="#972930" stroke-width="1.51"/><path d="M766,-203L291,-203L423,-181Z" fill="#a64943" stroke="#a64943" stroke-width="1.51"/><path d="M-6,916L-32,988L75,974Z" fill="#674063" stroke="#674063" stroke-width="1.51"/><path d="M-159,883L-6,916L11,817Z" fill="#6f516a" stroke="#6f516a" stroke-width="1.51"/><path d="M-34,488L-133,656L75,565Z" fill="#b07d81" stroke="#b07d81" stroke-width="1.51"/><path d="M-120,443L-34,488L4,355Z" fill="#b4716c" stroke="#b4716c" stroke-width="1.51"/><path d="M2080,852L1895,925L1943,958Z" fill="#1f568c" stroke="#1f568c" stroke-width="1.51"/><path d="M-108,277L-120,443L4,355Z" fill="#af6058" stroke="#af6058" stroke-width="1.51"/><path d="M138,-106L57,13L165,13Z" fill="#7e0623" stroke="#7e0623" stroke-width="1.51"/><path d="M138,-106L165,13L246,-154Z" fill="#8a0a25" stroke="#8a0a25" stroke-width="1.51"/><path d="M1827,10L1791,-110L1660,-54Z" fill="#5f385b" stroke="#5f385b" stroke-width="1.51"/><path d="M1902,-73L1791,-110L1827,10Z" fill="#552d4d" stroke="#552d4d" stroke-width="1.51"/><path d="M7,-192L138,-106L246,-154Z" fill="#800623" stroke="#800623" stroke-width="1.51"/><path d="M2036,743L2069,511L2023,653Z" fill="#7385a7" stroke="#7385a7" stroke-width="1.51"/><path d="M2023,653L2069,511L1951,559Z" fill="#7e8aa9" stroke="#7e8aa9" stroke-width="1.51"/><path d="M-133,656L-123,762L32,696Z" fill="#98707b" stroke="#98707b" stroke-width="1.51"/><path d="M-95,498L-133,656L-34,488Z" fill="#b37f82" stroke="#b37f82" stroke-width="1.51"/><path d="M-108,277L4,355L2,214Z" fill="#a74a44" stroke="#a74a44" stroke-width="1.51"/><path d="M-120,443L-133,656L-95,498Z" fill="#b57e81" stroke="#b57e81" stroke-width="1.51"/><path d="M1918,154L1977,106L1827,10Z" fill="#6d2d48" stroke="#6d2d48" stroke-width="1.51"/><path d="M2069,511L2065,447L1951,559Z" fill="#8788a3" stroke="#8788a3" stroke-width="1.51"/><path d="M2035,201L1918,154L1934,356Z" fill="#824e5e" stroke="#824e5e" stroke-width="1.51"/><path d="M-131,157L-108,277L2,214Z" fill="#9d3435" stroke="#9d3435" stroke-width="1.51"/><path d="M-32,988L-51,1142L75,974Z" fill="#562c4d" stroke="#562c4d" stroke-width="1.51"/><path d="M-159,883L-100,980L-6,916Z" fill="#684666" stroke="#684666" stroke-width="1.51"/><path d="M57,13L-37,98L78,114Z" fill="#860924" stroke="#860924" stroke-width="1.51"/><path d="M-63,-10L-37,98L57,13Z" fill="#720321" stroke="#720321" stroke-width="1.51"/><path d="M2065,447L2068,336L1934,356Z" fill="#8b7484" stroke="#8b7484" stroke-width="1.51"/><path d="M2069,511L2068,336L2065,447Z" fill="#8a7f94" stroke="#8a7f94" stroke-width="1.51"/><path d="M2051,1040L2080,852L1943,958Z" fill="#184e88" stroke="#184e88" stroke-width="1.51"/><path d="M2036,743L2080,852L2069,511Z" fill="#627da2" stroke="#627da2" stroke-width="1.51"/><path d="M2069,511L2090,80L2068,336Z" fill="#89636f" stroke="#89636f" stroke-width="1.51"/><path d="M2068,336L2035,201L1934,356Z" fill="#885f6d" stroke="#885f6d" stroke-width="1.51"/><path d="M-100,980L-51,1142L-32,988Z" fill="#552c4c" stroke="#552c4c" stroke-width="1.51"/><path d="M1791,-110L2020,-196L1681,-176Z" fill="#572d4f" stroke="#572d4f" stroke-width="1.51"/><path d="M1977,106L1902,-73L1827,10Z" fill="#542544" stroke="#542544" stroke-width="1.51"/><path d="M1946,-113L1902,-73L2088,-65Z" fill="#4c213f" stroke="#4c213f" stroke-width="1.51"/><path d="M-123,762L-159,883L11,817Z" fill="#7b5c70" stroke="#7b5c70" stroke-width="1.51"/><path d="M-140,1155L-51,1214L-51,1142Z" fill="#4c213f" stroke="#4c213f" stroke-width="1.51"/><path d="M-133,656L-159,883L-123,762Z" fill="#896776" stroke="#896776" stroke-width="1.51"/><path d="M-131,157L-159,883L-133,656Z" fill="#b17d81" stroke="#b17d81" stroke-width="1.51"/><path d="M-131,157L-133,656L-120,443Z" fill="#b36e69" stroke="#b36e69" stroke-width="1.51"/><path d="M1916,1081L2051,1040L1943,958Z" fill="#0c3d73" stroke="#0c3d73" stroke-width="1.51"/><path d="M2026,1126L2051,1040L1916,1081Z" fill="#053061" stroke="#053061" stroke-width="1.51"/><path d="M1974,1219L1789,1120L1773,1204Z" fill="#0a3a6f" stroke="#0a3a6f" stroke-width="1.51"/><path d="M1680,1277L1974,1219L1773,1204Z" fill="#0d3f76" stroke="#0d3f76" stroke-width="1.51"/><path d="M1974,1219L2026,1126L1916,1081Z" fill="#053061" stroke="#053061" stroke-width="1.51"/><path d="M-140,1155L-51,1142L-100,980Z" fill="#4c213f" stroke="#4c213f" stroke-width="1.51"/><path d="M-51,1142L-51,1214L145,1117Z" fill="#4f2240" stroke="#4f2240" stroke-width="1.51"/><path d="M-108,277L-131,157L-120,443Z" fill="#a84d46" stroke="#a84d46" stroke-width="1.51"/><path d="M-37,98L-131,157L2,214Z" fill="#93212c" stroke="#93212c" stroke-width="1.51"/><path d="M-134,86L-131,157L-37,98Z" fill="#8d0e26" stroke="#8d0e26" stroke-width="1.51"/><path d="M7,-192L-63,-10L57,13Z" fill="#67001f" stroke="#67001f" stroke-width="1.51"/><path d="M-94,-19L-63,-10L-110,-180Z" fill="#67001f" stroke="#67001f" stroke-width="1.51"/><path d="M1902,-73L1946,-113L1791,-110Z" fill="#512746" stroke="#512746" stroke-width="1.51"/><path d="M2088,-65L1902,-73L1977,106Z" fill="#4c213f" stroke="#4c213f" stroke-width="1.51"/><path d="M-63,-10L-134,86L-37,98Z" fill="#7a0423" stroke="#7a0423" stroke-width="1.51"/><path d="M-131,157L-134,86L-159,883Z" fill="#b1645c" stroke="#b1645c" stroke-width="1.51"/><path d="M-159,883L-140,1155L-100,980Z" fill="#5b3356" stroke="#5b3356" stroke-width="1.51"/><path d="M-63,-10L-94,-19L-134,86Z" fill="#6d0120" stroke="#6d0120" stroke-width="1.51"/><path d="M7,-192L57,13L138,-106Z" fill="#740321" stroke="#740321" stroke-width="1.51"/><path d="M2035,201L2090,80L1977,106Z" fill="#74334a" stroke="#74334a" stroke-width="1.51"/><path d="M2068,336L2090,80L2035,201Z" fill="#7f4558" stroke="#7f4558" stroke-width="1.51"/><path d="M2080,852L2090,80L2069,511Z" fill="#88859e" stroke="#88859e" stroke-width="1.51"/><path d="M1974,1219L2038,1259L2026,1126Z" fill="#053061" stroke="#053061" stroke-width="1.51"/><path d="M2026,1126L2038,1259L2051,1040Z" fill="#053061" stroke="#053061" stroke-width="1.51"/><path d="M2051,1040L2038,1259L2080,852Z" fill="#09376b" stroke="#09376b" stroke-width="1.51"/><path d="M1680,1277L2038,1259L1974,1219Z" fill="#063365" stroke="#063365" stroke-width="1.51"/><path d="M291,-203L7,-192L246,-154Z" fill="#8a0a25" stroke="#8a0a25" stroke-width="1.51"/><path d="M-140,1155L-114,1268L-51,1214Z" fill="#4c213f" stroke="#4c213f" stroke-width="1.51"/><path d="M-51,1214L-114,1268L145,1280Z" fill="#4c213f" stroke="#4c213f" stroke-width="1.51"/><path d="M2090,80L2088,-65L1977,106Z" fill="#5a2642" stroke="#5a2642" stroke-width="1.51"/><path d="M2088,-65L2020,-196L1946,-113Z" fill="#4c213f" stroke="#4c213f" stroke-width="1.51"/><path d="M1946,-113L2020,-196L1791,-110Z" fill="#4c213f" stroke="#4c213f" stroke-width="1.51"/><path d="M1681,-176L2020,-196L1483,-194Z" fill="#623c61" stroke="#623c61" stroke-width="1.51"/><path d="M1483,-194L2020,-196L766,-203Z" fill="#806072" stroke="#806072" stroke-width="1.51"/><path d="M7,-192L-110,-180L-63,-10Z" fill="#67001f" stroke="#67001f" stroke-width="1.51"/><path d="M-94,-19L-110,-180L-134,86Z" fill="#67001f" stroke="#67001f" stroke-width="1.51"/></svg>