<svg id="Capa_1" enable-background="new 0 0 512 512" height="512" viewBox="0 0 512 512" width="512" xmlns="http://www.w3.org/2000/svg"><g><g><path d="m114.434 389.561h-49.557v-145.28c0-13.685 11.094-24.779 24.779-24.779 13.685 0 24.779 11.094 24.779 24.779v17.652 127.628z" fill="#a1e8c3"/><path d="m503.262 398.612c0-16.29-13.206-29.496-29.497-29.496h-171.305c-20.783 0-40.857-7.558-56.48-21.265l-3.877-3.401c-20.228-17.748-46.178-27.755-73.087-27.763-.358 0-.716.001-1.074.003-27.485.188-53.833 11.023-74.019 29.678-15.824 14.625-36.579 22.747-58.126 22.747h-6.979c-9.527 0-17.25 7.723-17.25 17.25v37.072c-.916 2.844-1.415 5.874-1.415 9.022v52.988h491.693v-.754h1.415v-86.081z" fill="#f4dab5"/><path d="m472.35 369.587h-91.852c-.003 2.835-.206 6.099-.206 9.692l35.26 17.63c0 37.028-52.455 51.103-89.483 51.103h-315.916v37.153h491.694v-86.081c0-16.291-13.206-29.497-29.497-29.497z" fill="#dba2b3"/><g fill="#faf1a9"><circle cx="373.543" cy="168.309" r="50.316"/><path d="m204.208 91.146 8.34 23.452c.357 1.004 1.064 1.8 1.956 2.202l20.836 9.388c2.944 1.326 2.944 6.016 0 7.343l-20.836 9.387c-.892.402-1.599 1.198-1.956 2.202l-8.34 23.452c-1.178 3.313-5.345 3.313-6.524 0l-8.34-23.452c-.357-1.004-1.064-1.8-1.956-2.202l-20.836-9.387c-2.944-1.326-2.944-6.016 0-7.343l20.836-9.388c.892-.402 1.599-1.198 1.956-2.202l8.34-23.452c1.179-3.313 5.346-3.313 6.524 0z"/><path d="m82.033 18.525 6.187 17.396c.265.745.789 1.335 1.451 1.633l15.456 6.963c2.184.984 2.184 4.463 0 5.447l-15.456 6.963c-.662.298-1.186.888-1.451 1.633l-6.187 17.396c-.874 2.458-3.965 2.458-4.839 0l-6.187-17.396c-.265-.745-.789-1.335-1.451-1.633l-15.456-6.963c-2.184-.984-2.184-4.463 0-5.447l15.456-6.963c.662-.298 1.186-.888 1.451-1.633l6.187-17.396c.874-2.458 3.965-2.458 4.839 0z"/></g><ellipse cx="483.741" cy="56.901" fill="#f6e06e" rx="18.212" ry="18.212" transform="matrix(.23 -.973 .973 .23 317.221 514.628)"/><circle cx="260.498" cy="37.277" fill="#f6e06e" r="7.856"/></g><g><path d="m472.35 359.433h-171.306c-18.328 0-36.008-6.657-49.783-18.744l-3.877-3.401c-22.249-19.521-50.583-30.276-79.77-30.283l-1.158.003c-14.404.099-28.558 2.85-41.869 7.999v-70.726c0-19.262-15.67-34.933-34.932-34.933s-34.932 15.671-34.932 34.933v112.362c-6.559 1.831-13.392 2.79-20.342 2.79h-6.979c-15.109 0-27.402 12.294-27.402 27.404v98.328c0 5.608 4.546 10.153 10.153 10.153h491.693c5.607 0 10.153-4.546 10.153-10.153v-86.081c.001-21.863-17.786-39.651-39.649-39.651zm-87.501 31.758 15.643 5.945c20.881 7.936 42.796 11.96 65.137 11.96h18.968c2.693 0 5.166.957 7.096 2.548v63.367h-471.386v-55.688c4.217-6.168 11.313-10.227 19.343-10.227h160.967c21.657 0 42.944-3.789 63.269-11.261l19.567-7.194c32.762-12.045 68.771-11.849 101.396.55zm106.789 6.808c-2.223-.704-4.588-1.087-7.041-1.087h-18.968c-20.857 0-41.316-3.756-60.808-11.164l-15.643-5.945c-.057-.021-.113-.041-.17-.062h83.342c10.3-.001 18.72 8.098 19.288 18.258zm-416.607-153.717c0-8.065 6.561-14.626 14.625-14.626s14.625 6.561 14.625 14.626v80.868c-6.588 4.1-12.842 8.853-18.664 14.234-3.307 3.056-6.855 5.775-10.587 8.164v-103.266zm-47.628 135.458h6.979c24.174 0 47.264-9.036 65.018-25.443 18.643-17.23 42.506-26.812 67.197-26.982l1.001-.003c24.27.007 47.849 8.97 66.393 25.241l3.877 3.401c12.838 11.265 28.354 18.792 44.9 22.006-1.177.402-2.35.815-3.519 1.245l-19.567 7.194c-18.975 6.976-38.847 10.513-59.065 10.513h-160.967c-7.129 0-13.77 2.112-19.343 5.732v-15.807c0-3.913 3.183-7.097 7.096-7.097z" fill="#3c122c"/><path d="m373.543 228.778c-33.343 0-60.469-27.127-60.469-60.47s27.127-60.47 60.469-60.47c33.344 0 60.47 27.127 60.47 60.47s-27.126 60.47-60.47 60.47zm0-100.632c-22.146 0-40.162 18.017-40.162 40.163s18.016 40.163 40.162 40.163 40.163-18.017 40.163-40.163-18.017-40.163-40.163-40.163z" fill="#3c122c"/><path d="m124.023 378.33c-3.263 0-6.466-1.569-8.427-4.477-3.136-4.649-1.909-10.959 2.741-14.095.921-.622 22.852-15.239 47.489-16.812 5.6-.369 10.422 3.889 10.779 9.486.357 5.596-3.89 10.423-9.486 10.78-18.897 1.207-37.249 13.26-37.429 13.382-1.739 1.174-3.714 1.736-5.667 1.736z" fill="#fff"/><path d="m336.614 432.52c-3.364 0-6.092-2.728-6.092-6.092v-11.504c0-3.364 2.728-6.092 6.092-6.092s6.092 2.728 6.092 6.092v11.504c0 3.365-2.728 6.092-6.092 6.092z" fill="#3c122c"/><path d="m389.402 446.716c-3.364 0-6.092-2.728-6.092-6.092v-11.504c0-3.364 2.728-6.092 6.092-6.092s6.092 2.728 6.092 6.092v11.504c0 3.364-2.728 6.092-6.092 6.092z" fill="#3c122c"/><circle cx="362.404" cy="158.936" fill="#fff" r="10.153"/></g></g></svg>